<?xml version="1.0" encoding="UTF-8"?>
<svg height="128px" viewBox="0 0 128 128" width="128px" xmlns="http://www.w3.org/2000/svg">
    <linearGradient id="a" gradientTransform="matrix(1.62499 0 0 1.625 11.999975 12)" gradientUnits="userSpaceOnUse" x1="-0.717383" x2="24.1455" y1="7.61946" y2="61.245602">
        <stop offset="0.1" stop-color="#fc801d"/>
        <stop offset="0.59" stop-color="#fe2857"/>
    </linearGradient>
    <linearGradient id="b" gradientTransform="matrix(1.62499 0 0 1.625 11.999975 12)" gradientUnits="userSpaceOnUse" x1="4.22243" x2="62.927299" y1="60.0186" y2="1.31316">
        <stop offset="0.21" stop-color="#fe2857"/>
        <stop offset="0.7" stop-color="#007eff"/>
    </linearGradient>
    <path d="m 37.914062 21.453125 h -19.296874 c -3.65625 0 -6.617188 2.964844 -6.617188 6.621094 v 18.695312 c 0 1.933594 0.84375 3.769531 2.3125 5.027344 l 62.007812 53.152344 c 1.203126 1.027343 2.730469 1.59375 4.308594 1.59375 h 19.296875 c 3.65625 0 6.617188 -2.964844 6.617188 -6.617188 v -18.703125 c 0 -1.929687 -0.84375 -3.765625 -2.308594 -5.023437 l -62.011719 -53.152344 c -1.199218 -1.03125 -2.726562 -1.59375 -4.308594 -1.59375 z m 0 0" fill="#ff8100"/>
    <path d="m 35.59375 21.453125 h -16.976562 c -3.652344 0 -6.617188 2.960937 -6.617188 6.617187 v 21.273438 c 0 0.316406 0.023438 0.628906 0.066406 0.9375 l 8.574219 60.035156 c 0.46875 3.257813 3.257813 5.679688 6.550781 5.679688 h 25.46875 c 3.65625 0 6.621094 -2.964844 6.621094 -6.617188 l -0.007812 -30.125 c 0 -0.714844 -0.117188 -1.417968 -0.339844 -2.09375 l -17.0625 -51.183594 c -0.902344 -2.703124 -3.429688 -4.523437 -6.277344 -4.523437 z m 0 0" fill="url(#a)"/>
    <path d="m 109.382812 12 h -55.199218 c -2.648438 0 -5.039063 1.578125 -6.082032 4.011719 l -26.113281 60.921875 c -0.351562 0.824218 -0.535156 1.710937 -0.535156 2.605468 v 29.84375 c 0 3.652344 2.964844 6.617188 6.621094 6.617188 h 29.191406 c 1.308594 0 2.585937 -0.386719 3.675781 -1.113281 l 52.109375 -34.78125 c 1.839844 -1.226563 2.945313 -3.292969 2.945313 -5.503907 l 0.003906 -55.984374 c 0 -3.652344 -2.964844 -6.617188 -6.617188 -6.617188 z m 0 0" fill="url(#b)"/>
    <path d="m 96.5 31.5 h -65 v 65 h 65 z m 0 0"/>
    <g fill="#ffffff">
        <path d="m 39.625 59.75 h 4.839844 v -15.875 h -4.839844 v -4.25 h 14.363281 v 4.25 h -4.839843 v 15.875 h 4.839843 v 4.25 h -14.363281 z m 0 0"/>
        <path d="m 56.425781 59.613281 h 3.5 c 0.707031 0 1.335938 -0.152343 1.886719 -0.453125 c 0.554688 -0.300781 0.980469 -0.726562 1.28125 -1.277344 c 0.300781 -0.554687 0.453125 -1.183593 0.453125 -1.890624 v -16.367188 h 4.753906 v 16.695312 c 0 1.464844 -0.339843 2.777344 -1.011719 3.945313 c -0.671874 1.167969 -1.601562 2.082031 -2.785156 2.742187 c -1.183594 0.660157 -2.511718 0.992188 -3.988281 0.992188 h -4.089844 z m 0 0"/>
        <path d="m 39.625 83.5 h 26 v 4.875 h -26 z m 0 0"/>
    </g>
</svg>
